<svg width="336" height="266" viewBox="0 0 336 266" fill="none" xmlns="http://www.w3.org/2000/svg">
<path d="M115 75C115.007 80.0807 113.992 85.1109 112.014 89.791C106.245 103.43 92.9103 107.5 77.1703 107.5C56.1833 107.5 46.4253 97.487 46.4253 76.5C46.4253 60.82 48.4963 45.859 62.0513 40.053C66.7757 38.0321 71.8618 36.9934 77.0003 37C97.9873 37 115 54.013 115 75ZM209.5 234.5C209.514 242.849 206.765 250.968 201.682 257.591C194.737 266.655 183.801 265.829 171.5 265.829C150.513 265.829 133.5 255.486 133.5 234.499C133.5 213.512 150.513 196.499 171.5 196.499C192.487 196.499 209.5 213.513 209.5 234.5Z" fill="#D4CFD5"/>
<path d="M299.5 23.5C299.507 27.7614 298.324 31.9401 296.085 35.566C292.034 42.128 285.427 44.894 277.149 44.894C264.446 44.894 255.787 36.413 255.787 23.71C255.787 14.518 258.892 6.37501 266.686 2.69301C269.755 1.24444 273.107 0.495419 276.5 0.500021C289.203 0.500021 299.5 10.797 299.5 23.5ZM316.5 199.5C316.5 202.535 315.912 205.433 314.844 208.086C311.442 216.536 303.167 218.171 293.5 218.171C280.797 218.171 277.149 212.413 277.149 199.711C277.149 188.596 278.384 179.113 288.865 176.968C290.39 176.657 291.943 176.5 293.5 176.501C306.203 176.5 316.5 186.797 316.5 199.5Z" fill="#D4CFD5"/>
<path d="M111.95 89.9499C106.15 103.5 92.68 113 77 113C56.01 113 39 95.9899 39 74.9999C39 59.3199 48.5 45.8499 62.05 40.0499C60.0322 44.7756 58.9946 49.8616 59 54.9999C59 75.9899 76.01 92.9999 97 92.9999C102.31 92.9999 107.36 91.9099 111.95 89.9499ZM297.83 32.0799C294.44 40.5299 286.17 46.4999 276.5 46.4999C263.8 46.4999 253.5 36.1999 253.5 23.4999C253.5 12.2799 261.54 2.92992 272.17 0.919922C271.063 3.64467 270.495 6.55872 270.5 9.49992C270.5 22.1999 280.8 32.4999 293.5 32.4999C294.98 32.4999 296.43 32.3599 297.83 32.0799ZM314.83 208.08C311.44 216.53 303.17 222.5 293.5 222.5C280.8 222.5 270.5 212.2 270.5 199.5C270.5 188.28 278.54 178.93 289.17 176.92C288.063 179.645 287.495 182.559 287.5 185.5C287.5 198.2 297.8 208.5 310.5 208.5C311.98 208.5 313.43 208.36 314.83 208.08Z" fill="#C5BEC6"/>
<path d="M175 111.5C184.665 111.5 192.5 103.665 192.5 94C192.5 84.335 184.665 76.5 175 76.5C165.335 76.5 157.5 84.335 157.5 94C157.5 103.665 165.335 111.5 175 111.5Z" fill="#D4CFD5"/>
<path d="M15 163.5C23.0081 163.5 29.5 157.008 29.5 149C29.5 140.992 23.0081 134.5 15 134.5C6.99187 134.5 0.5 140.992 0.5 149C0.5 157.008 6.99187 163.5 15 163.5Z" fill="#C5BEC6"/>
<path d="M321 136.5C329.008 136.5 335.5 130.008 335.5 122C335.5 113.992 329.008 107.5 321 107.5C312.992 107.5 306.5 113.992 306.5 122C306.5 130.008 312.992 136.5 321 136.5Z" fill="#D4CFD5"/>
<path d="M73.4999 209.83C77.5482 209.83 80.8299 206.548 80.8299 202.5C80.8299 198.452 77.5482 195.17 73.4999 195.17C69.4517 195.17 66.1699 198.452 66.1699 202.5C66.1699 206.548 69.4517 209.83 73.4999 209.83Z" fill="#C5BEC6"/>
<path d="M266.5 257.83C270.548 257.83 273.83 254.548 273.83 250.5C273.83 246.452 270.548 243.17 266.5 243.17C262.452 243.17 259.17 246.452 259.17 250.5C259.17 254.548 262.452 257.83 266.5 257.83Z" fill="#D4CFD5"/>
</svg>
